# xmcd
#
# Track frame offsets: 
#        150
#        13004
#        26521
#        39495
#        49874
#        63409
#        73360
#        86565
#        100213
#        114820
#        127838
#        142298
#        152019
#        163670
#        173445
#        187581
#        197825
#        213161
#        225069
#        237840
#        249753
#        259934
#        278239
#        296001
#        308585
#        320708
#        333183
#        342961
#
# Disc length: 4765 seconds
#
# Revision: 0
# Processed by: cddbd v1.5.2PL0 Copyright (c) Steve Scherf et al.
# Submitted via: ExactAudioCopy v0.99pb4
#
DISCID=7e129b1c
DTITLE=Various Artist - Plantation Gold [CD1]
DYEAR=2009
DGENRE=Country
TTITLE0=Dee Mullins - I Am The Grass
TTITLE1=Neil Ray - Big Fanny 
TTITLE2=The Harper Valley P.T.A - Beautiful Downtown Burbank 
TTITLE3=Harlow Wilcox and The Oakies - Loco Locust 
TTITLE4=Johnny Moore and 'Col.' Tex Herring - Sold To The Highest Bidd
TTITLE4=er 
TTITLE5=Lawton Williams - The Preacher And The Movie 
TTITLE6=Becki Bluefield - Somebody's Gonna Plow Your Field 
TTITLE7=Clark Bentley - Ballad Of A Small Town Sheriff  
TTITLE8=Ray 'Wong' Riley - Happy Valley C.I.A 
TTITLE9=Happy Shahan - Changing Of The Guard 
TTITLE10=Johnny Credit - Hello, I'm Johnny Credit 
TTITLE11=Sonny Hall - Howard Hughes Is Alive And Well 
TTITLE12=Chuck Wood - I'm The Mail She's Waiting For 
TTITLE13=Marcie Dickerson - (I Want To Be) A Truck Driver's Sweetheart
TTITLE13=
TTITLE14=Tokyo Matsu - Mom And Dad's Waltz 
TTITLE15=George Kent - The Baltimore Incident 
TTITLE16=Jackie Burns - D.O.A O.D 
TTITLE17=Dewey Jones - Please Mr Johnson 
TTITLE18=Rusty Adams - Hippie From Mississippi 
TTITLE19=David Wilkins - Just Blow In His Ear 
TTITLE20=The Harper Valley P.T.A - I Dig Dangling Participles 
TTITLE21=Margaret Lewis - Honey (I Miss You Too) 
TTITLE22=Marty Collins and Bobbye Jean - Long Black Veil  
TTITLE23=T. Tommy Cutrer - The School Bus  
TTITLE24=Webb Pierce - The Good Lord Giveth And Uncle Sam Taketh Away
TTITLE25=Little Jimmy Dempsey - Folsom Prison Blues 
TTITLE26=Tokyo Matsu - Orange Blossom Special 
TTITLE27=Jeannie C. Riley - Harper Valley P.T.A 
EXTD=
EXTT0=
EXTT1=
EXTT2=
EXTT3=
EXTT4=
EXTT5=
EXTT6=
EXTT7=
EXTT8=
EXTT9=
EXTT10=
EXTT11=
EXTT12=
EXTT13=
EXTT14=
EXTT15=
EXTT16=
EXTT17=
EXTT18=
EXTT19=
EXTT20=
EXTT21=
EXTT22=
EXTT23=
EXTT24=
EXTT25=
EXTT26=
EXTT27=
PLAYORDER=
